<?xml version="1.0" encoding="UTF-8"?>
<svg id="Layer_1" data-name="Layer 1" xmlns="http://www.w3.org/2000/svg" viewBox="0 0 400 70">
  <defs>
    <style>
      .cls-1 {
        fill: #ed01ee;
      }
    </style>
  </defs>
  <path class="cls-1" d="M34.6310639266.3689360734C15.5048413748.3689360734,0,15.8737774482,0,35s15.5048413748,34.6310639266,34.6310639266,34.6310639266c19.1261802775,0,34.6310639266-15.5048413748,34.6310639266-34.6310639266S53.7572442041.3689360734,34.6310639266.3689360734ZM24.2417447486,52.3155319633h-6.9262127853V17.6844680367h6.9262127853v34.6310639266ZM51.9465958899,52.3155319633h-20.7786383559v-6.9262127853h20.7786383559v6.9262127853ZM51.9465958899,38.4590480649h-20.7786383559v-6.9262127853h20.7786383559v6.9262127853ZM51.9465958899,24.610680822h-20.7786383559v-6.9262127853h20.7786383559v6.9262127853Z"/>
  <g>
    <path class="cls-1" d="M100.2787641792,45.775504672c1.8778330211,1.9016540224,4.2366154143,2.8518100195,7.0773537008,2.8518100195,2.3812613663,0,4.3396160821-.5035960987,5.8748963937-1.5117948174,1.5342737905-1.0071921975,2.5305620085-2.4273935872,2.9890324075-4.2601009086h7.2833550363c-.6419927614,3.6192824218-2.4285678619,6.5167214017-5.3595575479,8.692149186-2.9319962071,2.1760987984-6.5276253811,3.2638126906-10.7877262897,3.2638126906-3.4355923059,0-6.4481102077-.7441546616-9.035540663-2.2331349988-2.5886047301-1.4883093231-4.6036601392-3.4926285063-6.046676009-6.0122865353-1.4430158699-2.5188192614-2.1880092991-5.2446463794-2.2331349988-8.1768103401h7.0773537008c.2286480622,3.0234218813,1.281804727,5.4862114634,3.1606442693,7.3863557041ZM96.9807297684,36.1217922489c0-.7783763818.0912579206-1.8090540736.2747802831-3.0920330753h18.6209773992c-.183690116-2.4736935617-1.0887204133-4.4662699976-2.7142521245-5.978064815-1.6265382323-1.5116270639-3.7908942836-2.2673567191-6.4932359074-2.2673567191-2.5198257825,0-4.5929239132.7332506821-6.2184556243,2.1987455251-1.6265382323,1.4665013641-2.6914376443,3.4817245268-3.195033743,6.046676009h-7.0773537008c.4123381781-2.6110837032,1.3281047014-4.9816088435,2.7484738447-7.1117431746,1.4193626221-2.130134331,3.3089383903-3.8016305095,5.6687273047-5.0159983173,2.3587823932-1.213193533,5.050387791-1.8207968207,8.0736419188-1.8207968207,3.5268502265,0,6.5383616071.7676401558,9.0357084166,2.3017461928,2.4961725347,1.5352803117,4.3738378023,3.5505034743,5.6343378309,6.046676009,1.2593257539,2.4973468095,1.8895757682,5.2339101535,1.8895757682,8.2110320603,0,.8246763562-.0461322209,1.7414494007-.1373901415,2.7484738447h-25.9731113831c-.0924321953-1.0992888858-.1373901415-1.8551862945-.1373901415-2.2673567191Z"/>
    <path class="cls-1" d="M128.3132309458,11.3167486991h-5.4969476894v-6.3214562921h12.8490816732v49.2661923619h-7.3521339839V11.3167486991Z"/>
    <path class="cls-1" d="M150.0261208306,45.775504672c1.8778330211,1.9016540224,4.2366154143,2.8518100195,7.0773537008,2.8518100195,2.3812613663,0,4.3396160821-.5035960987,5.8748963937-1.5117948174,1.5342737905-1.0071921975,2.5305620085-2.4273935872,2.9890324075-4.2601009086h7.2833550363c-.6419927615,3.6192824218-2.4285678619,6.5167214017-5.3595575479,8.692149186-2.9319962071,2.1760987984-6.5276253812,3.2638126906-10.7877262897,3.2638126906-3.4355923059,0-6.4481102077-.7441546616-9.035540663-2.2331349988-2.5886047301-1.4883093231-4.6036601392-3.4926285063-6.046676009-6.0122865353-1.4430158699-2.5188192614-2.1880092991-5.2446463794-2.2331349988-8.1768103401h7.0773537008c.2286480621,3.0234218813,1.281804727,5.4862114634,3.1606442693,7.3863557041ZM146.7280864198,36.1217922489c0-.7783763818.0912579206-1.8090540736.2747802831-3.0920330753h18.6209773992c-.183690116-2.4736935617-1.0887204133-4.4662699976-2.7142521245-5.978064815-1.6265382323-1.5116270639-3.7908942836-2.2673567191-6.4932359074-2.2673567191-2.5198257825,0-4.5929239132.7332506821-6.2184556243,2.1987455251-1.6265382323,1.4665013641-2.6914376443,3.4817245268-3.195033743,6.046676009h-7.0773537008c.4123381781-2.6110837032,1.3281047014-4.9816088435,2.7484738447-7.1117431746,1.4193626221-2.130134331,3.3089383903-3.8016305095,5.6687273047-5.0159983173,2.3587823932-1.213193533,5.050387791-1.8207968207,8.0736419188-1.8207968207,3.5268502265,0,6.5383616071.7676401558,9.0357084166,2.3017461928,2.4961725347,1.5352803117,4.3738378023,3.5505034743,5.6343378309,6.046676009,1.2593257539,2.4973468095,1.8895757682,5.2339101535,1.8895757682,8.2110320603,0,.8246763562-.0461322209,1.7414494007-.1373901415,2.7484738447h-25.9731113831c-.0924321953-1.0992888858-.1373901415-1.8551862945-.1373901415-2.2673567191Z"/>
    <path class="cls-1" d="M180.213081459,25.8836265253h-5.4969476894v-6.2526773446h12.7804704792v5.84050692c.8245086027-1.9690909417,2.1301343311-3.5268502265,3.916541678-4.6724390867,1.7865751005-1.144582339,3.916541678-1.7177961529,6.3902352396-1.7177961529,2.6110837032,0,4.912829896.6183395136,6.9055740855,1.8551862945,1.992576436,1.2368467808,3.3324238846,2.9319962071,4.0195423457,5.0846095113.7783763818-2.0150554091,2.2331349988-3.6759831152,4.3632693299-4.9816088435,2.130134331-1.3054579748,4.4545272505-1.9581869622,6.9741852795-1.9581869622,3.7556660422,0,6.7337944702,1.1917210811,8.9325399953,3.5729824474,2.1989132786,2.382435641,3.2982021644,5.5430799103,3.2982021644,9.4822683149v22.1250131456h-7.2833550363v-20.063657762c0-2.6562094029-.642160515-4.7861759804-1.923965242-6.3902352396-1.2829790017-1.6028849845-3.0007751547-2.4049146141-5.1533884588-2.4049146141-2.4285678619,0-4.375012077.9618987442-5.84050692,2.8858639862-1.4666691177,1.923965242-2.1987455251,4.2601009086-2.1987455251,7.0085747533v18.9643688763h-7.3523017374v-20.063657762c0-2.6562094029-.6300822608-4.7861759804-1.8895757682-6.3902352396-1.2603322751-1.6028849845-2.9663856809-2.4049146141-5.118998985-2.4049146141-2.3822678875,0-4.3181436301.9738092449-5.8061174462,2.92025346-1.4891480908,1.9476184898-2.2331349988,4.2720114092-2.2331349988,6.9741852795v18.9643688763h-7.2835227899v-28.3778582437Z"/>
    <path class="cls-1" d="M246.5920315206,45.775504672c1.877497514,1.9016540224,4.2361121537,2.8518100195,7.0771859473,2.8518100195,2.3814291198,0,4.3394483285-.5035960987,5.8747286402-1.5117948174,1.5346092976-1.0071921975,2.530394255-2.4273935872,2.9893679146-4.2601009086h7.2831872828c-.642160515,3.6192824218-2.4284001084,6.5167214017-5.3593897943,8.692149186-2.9323317142,2.1760987984-6.5276253812,3.2638126906-10.7878940433,3.2638126906-3.4355923059,0-6.4484457147-.7441546616-9.0358761701-2.2331349988-2.588269223-1.4883093231-4.6033246321-3.4926285063-6.046340502-6.0122865353-1.4430158699-2.5188192614-2.1880092991-5.2446463794-2.2331349988-8.1768103401h7.0773537008c.2284803086,3.0234218813,1.2819724805,5.4862114634,3.1608120228,7.3863557041ZM243.2938293562,36.1217922489c0-.7783763818.0912579206-1.8090540736.2746125295-3.0920330753h18.6213129063c-.1838578695-2.4736935617-1.0890559204-4.4662699976-2.7142521245-5.978064815-1.6265382323-1.5116270639-3.7912297907-2.2673567191-6.4934036609-2.2673567191-2.519658029,0-4.5930916667.7332506821-6.2182878708,2.1987455251-1.6265382323,1.4665013641-2.6914376443,3.4817245268-3.1953692501,6.046676009h-7.0771859473c.4123381781-2.6110837032,1.3281047014-4.9816088435,2.7484738447-7.1117431746,1.4193626221-2.130134331,3.3089383903-3.8016305095,5.6687273047-5.0159983173,2.3586146397-1.213193533,5.050052284-1.8207968207,8.0736419188-1.8207968207,3.5268502265,0,6.5383616071.7676401558,9.0358761701,2.3017461928,2.4961725347,1.5352803117,4.3736700488,3.5505034743,5.6338345703,6.046676009,1.2594935074,2.4973468095,1.8895757682,5.2339101535,1.8895757682,8.2110320603,0,.8246763562-.0456289603,1.7414494007-.1368868809,2.7484738447h-25.9732791366c-.0924321953-1.0992888858-.1373901415-1.8551862945-.1373901415-2.2673567191Z"/>
    <path class="cls-1" d="M276.4988907924,25.8836265253h-5.4969476894v-6.2526773446h12.7804704792v5.84050692c.9159342769-2.0613553835,2.3468718925-3.6417613949,4.2944903823-4.7412180342,1.9466119686-1.0992888858,4.2022259405-1.6490172054,6.768183944-1.6490172054,3.8928884302,0,7.0191432257,1.271068501,9.3790998936,3.8135410102,2.3586146397,2.5423047556,3.5385929736,5.8747286402,3.5385929736,9.9974394072v21.3692834904h-7.3519662303v-19.857488673c0-2.6110837032-.7109394625-4.7175647864-2.1301343311-6.3216240456-1.4205368968-1.6028849845-3.2983699179-2.4049146141-5.6345055845-2.4049146141-2.5659580034,0-4.6840140803.916940798-6.3558457659,2.7484738447-1.6725026997,1.8327073214-2.5079152819,4.1690107415-2.5079152819,7.0087425068v18.8268109812h-7.2835227899v-28.3778582437Z"/>
    <path class="cls-1" d="M320.6323564019,51.1694516936c-2.1301343311-2.0613553835-3.1953692501-4.9010871488-3.1953692501-8.5200340636v-16.7657911048h-7.0084069997v-6.2526773446h7.0084069997v-10.7191150957h7.2835227899v10.7191150957h10.0319966345v6.2526773446h-10.0319966345v16.4908430682c0,1.7865751005.4693743785,3.1725547699,1.4087941496,4.1569324873.9380777429.9857197456,2.2331349988,1.4772375901,3.8821522042,1.4772375901h4.7410502807v6.2528450981h-5.4969476894c-3.6191146683,0-6.4934036609-1.0306776918-8.6232024849-3.0920330753Z"/>
    <path class="cls-1" d="M345.5703825898,52.5094668958c-2.7259948716-1.5342737905-4.8557936956-3.6526653744-6.3900674861-6.3558457659-1.5352803117-2.7023416238-2.3019139463-5.7717279724-2.3019139463-9.2073202783s.7666336347-6.5039721334,2.3019139463-9.2074880319c1.5342737905-2.7021738703,3.6640726145-4.8205654542,6.3900674861-6.3558457659,2.7249883504-1.534106037,5.8062851997-2.3017461928,9.2418775056-2.3017461928s6.515882634.7676401558,9.2415419986,2.3017461928c2.7249883504,1.5352803117,4.8551226815,3.6536718956,6.3904029932,6.3558457659,1.5342737905,2.7035158985,2.3019139463,5.771895726,2.3019139463,9.2074880319s-.7676401558,6.5049786545-2.3019139463,9.2073202783c-1.5352803117,2.7031803914-3.6654146427,4.8215719754-6.3904029932,6.3558457659-2.7256593645,1.5352803117-5.8059496927,2.3019139463-9.2415419986,2.3019139463s-6.5168891552-.7666336347-9.2418775056-2.3019139463ZM362.4047848886,45.2261118594c1.9466119686-2.1301343311,2.92025346-4.8893444017,2.92025346-8.2798110078,0-3.389460085-.9736414914-6.1496766768-2.92025346-8.2798110079-1.9476184898-2.130134331-4.4780127448-3.195033743-7.5925247931-3.195033743-3.1158540766,0-5.6345055845,1.064899412-7.5583030729,3.195033743-1.9241329955,2.1301343311-2.8860317398,4.8903509229-2.8860317398,8.2798110079,0,3.3904666061.9618987442,6.1496766768,2.8860317398,8.2798110078,1.9237974885,2.1299665775,4.4424489963,3.1948659895,7.5583030729,3.1948659895,3.1145120484,0,5.6449063033-1.064899412,7.5925247931-3.1948659895Z"/>
    <path class="cls-1" d="M379.4552251123,25.8836265253h-5.4969476894v-6.2526773446h12.7804704793v6.4588464336c.8246763562-2.2438712248,1.9583547158-3.8821522042,3.4013705856-4.912829896,1.4426803628-1.0306776918,3.3550706112-1.5460165376,5.7371707452-1.5460165376h4.122710767v6.2526773446h-5.1533884588c-2.8407382865,0-4.90209367,1.1111993864-6.1840661506,3.3325916381-1.2829790017,2.2223987729-1.9237974885,5.2563891266-1.9237974885,9.1043196106v15.940946995h-7.2835227899v-28.3778582437Z"/>
  </g>
</svg>